<svg xmlns="http://www.w3.org/2000/svg" width="139.01" height="41" fill="none" viewBox="0 0 139 41" color=""><path fill="#363636" d="M5.97 31.237L0 40.86h1.943l1.446-2.41H10.4l1.446 2.41h1.975L7.835 31.22H5.97v.016zm-1.928 6.125l2.845-4.726 2.845 4.726h-5.69zM18.313 31.237h-1.881v9.623h9.017v-1.197h-7.136v-8.426zM24.967 32.434h4.508v8.426h1.866v-8.426h4.524v-1.197H24.967v1.197zM47.571 31.765c-1.072-.42-2.254-.637-3.575-.637-1.337 0-2.534.218-3.592.637-1.072.42-1.912 1.01-2.518 1.773-.606.746-.917 1.585-.917 2.518 0 .933.31 1.772.917 2.519.606.746 1.446 1.337 2.518 1.772 1.073.42 2.27.637 3.592.637 1.321 0 2.518-.217 3.575-.637 1.073-.42 1.897-1.01 2.503-1.757a3.894 3.894 0 00.902-2.534c0-.933-.295-1.772-.902-2.518-.606-.762-1.43-1.353-2.503-1.773zm.855 6.172c-.45.56-1.057 1.01-1.834 1.322-.777.326-1.648.482-2.612.482-.964 0-1.85-.156-2.627-.482-.778-.327-1.4-.762-1.85-1.322a2.946 2.946 0 01-.669-1.896c0-.7.218-1.322.669-1.897.45-.56 1.057-1.01 1.85-1.322.777-.326 1.663-.482 2.627-.482.964 0 1.835.156 2.612.482.777.327 1.384.762 1.834 1.322.451.56.669 1.197.669 1.897s-.218 1.337-.669 1.896zM62.31 36.787a4.204 4.204 0 00-1.556-.793c-.606-.171-1.399-.342-2.394-.529a25.258 25.258 0 01-1.819-.357 3.378 3.378 0 01-1.119-.482c-.295-.202-.45-.482-.45-.809 0-.45.264-.824.792-1.103.529-.28 1.337-.42 2.394-.42a8.53 8.53 0 011.85.202c.622.14 1.213.326 1.773.59l.621-1.103c-.544-.28-1.181-.482-1.943-.637a12.546 12.546 0 00-2.3-.218c-1.12 0-2.053.124-2.815.373-.746.249-1.321.575-1.679.995-.373.42-.56.87-.56 1.384 0 .621.218 1.103.654 1.461a4.18 4.18 0 001.57.808c.606.171 1.414.342 2.394.529.793.14 1.4.264 1.834.373.436.109.793.264 1.089.482a.94.94 0 01.435.808c0 .451-.264.809-.808 1.089-.545.264-1.353.404-2.457.404a9.788 9.788 0 01-2.425-.311c-.777-.202-1.43-.482-1.928-.809l-.7 1.073c.53.358 1.26.653 2.177.87.917.219 1.881.343 2.876.343 1.12 0 2.052-.124 2.83-.358.761-.248 1.337-.575 1.71-.995.373-.42.56-.886.56-1.383.046-.638-.172-1.12-.607-1.477zM74.606 31.237l-5.97 9.639h1.944l1.446-2.41h7.011l1.446 2.41h1.974l-5.985-9.64h-1.865zm-1.927 6.125l2.845-4.726 2.845 4.726h-5.69zM94.024 38.42l-7.913-7.183h-1.539v9.623h1.881v-7.182l7.913 7.182h1.54v-9.623h-1.882v7.182zM109.445 31.828c-1.072-.405-2.316-.607-3.715-.607h-5.55v9.639h5.55c1.399 0 2.627-.202 3.715-.606 1.073-.405 1.913-.964 2.519-1.695.591-.73.902-1.57.902-2.518 0-.949-.296-1.788-.902-2.519-.606-.715-1.446-1.29-2.519-1.694zm.871 6.11c-.435.543-1.057.963-1.881 1.274-.809.295-1.741.45-2.814.45h-3.56v-7.244h3.56c1.073 0 2.005.156 2.814.451.808.295 1.43.73 1.881 1.275a2.96 2.96 0 01.653 1.897 2.93 2.93 0 01-.653 1.896zM117.469 36.554h6.607v-1.166h-6.607v-2.954h7.416v-1.197h-9.313v9.623h9.577v-1.197h-7.68v-3.11zM137.477 36.787a4.198 4.198 0 00-1.555-.793c-.606-.171-1.399-.342-2.394-.529a25.358 25.358 0 01-1.819-.357 3.38 3.38 0 01-1.119-.482c-.295-.202-.451-.482-.451-.809 0-.45.265-.824.793-1.103.529-.28 1.337-.42 2.394-.42.607 0 1.213.062 1.85.202.622.14 1.213.326 1.773.59l.621-1.103c-.544-.28-1.181-.482-1.943-.637a12.54 12.54 0 00-2.301-.218c-1.119 0-2.052.124-2.814.373-.746.249-1.321.575-1.679.995-.373.42-.559.87-.559 1.384 0 .621.217 1.103.653 1.461.435.358.948.637 1.57.808.606.171 1.415.342 2.394.529.793.14 1.399.264 1.834.373.436.109.793.264 1.089.482a.94.94 0 01.435.808c0 .451-.264.809-.808 1.089-.545.264-1.353.404-2.457.404a9.786 9.786 0 01-2.425-.311c-.777-.202-1.43-.482-1.928-.809l-.699 1.073c.528.358 1.259.653 2.176.87.917.219 1.881.343 2.876.343 1.12 0 2.052-.124 2.83-.358.761-.248 1.337-.575 1.71-.995.373-.42.559-.886.559-1.383.047-.638-.171-1.12-.606-1.477zM123.78 18.815c-.031-.124-.171-.357-.669-.528-.015 0-.031-.016-.031-.016a81.662 81.662 0 01-1.446-.466 4.307 4.307 0 01-1.104-.544l-3.435-2.348c-.202-.14-.094-.466.155-.45 2.628.248 5.348.792 5.348.792l.062.016a3.504 3.504 0 00-.497-.575 3.217 3.217 0 00-1.866-.84l-21.5-2.487c-1.508-.171-2.488-.28-2.612-.296h-.016a39.406 39.406 0 01-2.58-1.243C64.92-5.623 26.972 1.28 18.08 3.207c-.062.015-.078.109 0 .14.218.062.42.14.606.186.513.156.715.793.404 1.244l-5.27 7.214v.03c.11-.03.233-.03.342-.03h5.628c.358 0 .7.108.995.326l-.093.14a1.806 1.806 0 01-.249.326c-.544.545-2.394 2.41-3.296 2.877-.59.31-2.098.761-3.327 1.088v6.42h4.073l7.618-5.814a7.418 7.418 0 019.017 0l5.27 4.027a8.619 8.619 0 005.255 1.787h46.996a6.463 6.463 0 003.934-1.337l4.959-3.777a5.785 5.785 0 017.058 0l6.701 5.114h9.732l-.653-4.353zm-35.648-8.224s-1.757-.17-2.44 0c-.28.078-.483.327-.623.607a2.469 2.469 0 00-.233 1.414l.078.747-50.961-3.11a9.894 9.894 0 01-1.788-.248l-6.56-1.54 3.14-3.808c.342-.42.762-.747 1.212-.995h.016a3.984 3.984 0 011.741-.467c3.7-.855 13.308-2.472 29.46-1.088 21.315 1.819 28.746 8.52 28.746 8.52h-1.788v-.032z"></path></svg>