<svg xmlns="http://www.w3.org/2000/svg" width="226pt" height="34pt" viewBox="0 0 226 34"><path style="stroke:none;fill-rule:nonzero;fill:#fff;fill-opacity:1" d="M44.902 2.25c-.023.016-.043 2.922-.043 6.46v6.419H29.734l-.05-1.45-.051-1.456-.535-.016c-.293-.012-1.356-.035-2.356-.05l-1.82-.032-.074.125c-.102.176-.102 4.094-.004 4.465.039.144.093.402.129.578.05.262.113.383.316.61.14.156.305.3.375.32.484.156 2.344.183 12.727.187l10.34.008.289-.3a2.84 2.84 0 0 0 .355-.427.415.415 0 0 1 .21-.18l.134-.058V2.211h-2.39c-1.317 0-2.411.016-2.427.039zM57.8 2.266c-2.046.062-2.566.109-2.843.25-.367.187-.523.472-.672 1.195-.125.617-.125.652-.113 6.547.012 3.64.039 6.05.074 6.262.027.187.078.496.102.695.027.226.101.43.199.578.242.375.355.414 1.129.441.37.012.726.047.777.075.059.035 4.844.07 11.32.09l11.215.035-.035-1.524c-.016-.84-.039-1.555-.05-1.594-.016-.05-1.04-.066-4.29-.074-2.351 0-4.308-.015-4.355-.031-.051-.024-2.594-.05-5.656-.074l-5.57-.035.003-1.434c.008-.79.024-1.469.043-1.508.031-.098 4.598-.148 12.777-.148h5.887v-1.637c0-1.414-.008-1.645-.082-1.672-.05-.015-3.945-.031-8.652-.031-4.711 0-8.582-.012-8.606-.024-.02-.02-.308-.035-.64-.039-.34-.007-.625-.035-.64-.062-.028-.047-.036-2.942-.005-2.973.004-.004 4.473-.027 9.926-.05l9.914-.04.02-1.636.011-1.637-9.957.012c-5.48.004-10.531.02-11.23.043zM83.46 3.852l.02 1.652 5.082.008 5.086.011.016 6.461.012 6.461 2.386-.015c1.31-.012 2.395-.032 2.407-.043.023-.02.113-8.957.117-11.914l.008-.918h1.71c2.926-.008 8.415-.102 8.458-.157.023-.02.058-.75.07-1.617l.02-1.57H83.449zM118.113 2.273c-.898.024-2.148.067-2.761.102-.985.05-1.16.074-1.387.188-.399.195-.55.539-.688 1.507-.097.711-.101 1.211-.109 6.13 0 4.917.012 5.429.11 6.288.062.516.136 1 .163 1.078.079.2.547.625.7.63.074.007.476.027.894.058 1.04.07 8.852.144 16.535.156l6.348.008.152-.176c.09-.101.317-.336.512-.523l.352-.344-.004-2.953c0-1.621-.024-4.692-.051-6.828-.043-3.524-.059-3.91-.156-4.223-.141-.465-.27-.656-.532-.808-.195-.114-.332-.133-1.445-.184-.676-.031-2.105-.082-3.18-.113-2.25-.063-13.023-.055-15.453.007zm16.02 8.051v4.824l-8.004-.035c-4.406-.023-8.02-.05-8.04-.066-.05-.059-.038-9.25.013-9.3.175-.18 1.933-.227 9.492-.24l6.539-.01zM143.418 9.844l.043 7.636.5.473.504.469 11.367-.004h11.375l.422-.414c.238-.223.45-.438.469-.477.03-.035.062-3.496.086-7.691l.035-7.625-2.426.012-2.422.015-.031 6.434-.028 6.43h-15.085l-.016-6.45-.012-6.441h-4.82zM172.637 2.957c-.02.414-.028 4.063-.02 8.11l.02 7.355 2.41.012c1.582.003 2.418-.004 2.418-.047v-4.63c0-4.01.008-4.566.086-4.554a.264.264 0 0 1 .125.055 1.2 1.2 0 0 0 .215.125c.093.047.28.152.422.25.144.09.386.246.539.34.328.203.746.488 1.093.75.137.101.336.238.43.3.414.254.86.567 1.074.735.125.097.492.351.82.562.329.207.758.496.961.645.204.14.61.418.903.613.293.2.652.434.793.531.14.098.496.336.789.528.293.199.703.468.898.605.2.145.528.371.735.512.203.14.515.355.683.48.172.121.492.348.707.493.832.574.973.671 1.317.937.191.145.422.305.507.344.086.047.231.16.329.25l.18.172 3.265-.012c1.797 0 3.328-.02 3.398-.035.184-.051.157-.149-.07-.278a11.84 11.84 0 0 1-.644-.453c-.243-.187-.575-.43-.739-.539a26.18 26.18 0 0 1-1.433-1.035 9.35 9.35 0 0 0-.758-.539c-.235-.148-.5-.324-.594-.39-.101-.07-.394-.27-.66-.45a19.215 19.215 0 0 1-.621-.426c-.082-.054-.36-.253-.617-.43-.262-.179-.63-.437-.82-.566-.61-.43-1.243-.851-1.391-.925-.184-.094-.563-.434-.524-.473.016-.02.922-.035 2.016-.043 2.21-.004 4-.066 5.059-.164 1.296-.113 1.609-.371 1.707-1.414.027-.297.07-.774.105-1.051.086-.742.055-4.305-.035-4.898a7.227 7.227 0 0 1-.078-.711c-.004-.13-.086-.38-.188-.59-.265-.531-.355-.555-2.297-.692-1.418-.09-2.453-.101-12.011-.105h-10.465zm20.289 2.617c.015.047.012.715-.02 1.492l-.043 1.407-.312.004c-.168 0-3.625.007-7.684.02l-7.37.003-.02-1.422c-.012-.781-.004-1.457.011-1.496.047-.121 15.39-.125 15.438-.008zM162.906 23.434c-.363.18-.445.445-.277.847.113.266.324.39.605.352.25-.035.414-.153.536-.395.113-.21.02-.574-.18-.699-.2-.129-.531-.18-.684-.105zM101.723 23.625c-.13.063-.25.152-.27.203-.02.05-.035.59-.035 1.192 0 .605-.023 1.109-.047 1.125-.027.02-.101-.012-.156-.067a2.737 2.737 0 0 0-.54-.336c-.183-.094-1.01-.129-1.347-.062-.898.183-1.504.886-1.73 2.03-.125.622-.055 1.15.23 1.735.195.395.758 1.043.91 1.043.035 0 .125.051.203.106.2.16.934.254 1.278.172.344-.086.668-.25.906-.461.219-.188.293-.164.293.086 0 .316.043.34.57.3l.473-.039-.008-2.988c-.012-2.766-.043-3.367-.183-3.95-.043-.21-.215-.237-.547-.089zm-1.688 2.895c.016.027.082.058.145.058.164 0 .62.242.808.43.32.328.383.539.364 1.242l-.02.637-.23.281c-.457.543-.915.719-1.489.582-.324-.078-.691-.375-.843-.676-.125-.242-.211-1.32-.133-1.535.035-.078.199-.293.367-.48.402-.442.922-.715 1.031-.54zM118.332 23.613c-.02.055-.05 1.676-.062 3.61l-.016 3.504.176-.036c.097-.02.34-.035.535-.035.34 0 .363-.004.363-.129 0-.074-.016-.148-.035-.172-.063-.062-.02-1.875.047-1.914.035-.023.043-.109.027-.199-.043-.242.078-.879.223-1.097.191-.313.375-.454.703-.547.723-.192 1.262.132 1.441.879.067.273.223 2.93.176 3.14-.004.04.047.067.117.063.07 0 .278-.008.465-.012l.34-.012-.008-1.488c0-.816-.02-1.617-.05-1.77-.192-1.156-.563-1.605-1.422-1.718-.465-.063-1.09-.032-1.254.058-.621.352-.774.414-.832.328a.337.337 0 0 1-.028-.199c.028-.125.028-.87.004-1.613-.012-.266-.023-.54-.023-.613-.004-.118-.028-.125-.422-.125-.344 0-.422.02-.465.097zM154.164 23.617c-.066.11-.152 2.93-.14 4.926l.007 2.172 1.063-.024v-7.039l-.254-.004a4.483 4.483 0 0 1-.453-.043c-.102-.02-.203-.015-.223.012zM160.371 23.629c-.07.031-.144.098-.164.152-.023.059-.062.61-.082 1.219-.016.613-.05 1.133-.07 1.156-.024.024-.137-.031-.25-.125l-.305-.238c-.266-.191-1.582-.156-1.996.059-.45.23-.86.746-1.152 1.46-.133.34-.133 1.497.007 1.793.051.106.133.29.192.403.113.246.777.98.89.98.043 0 .121.051.176.106.07.07.223.125.442.148.187.024.355.067.375.102.02.035.066.035.109.004a.604.604 0 0 1 .195-.063c.38-.027.95-.265 1.121-.46.16-.177.246-.15.286.1.039.27.101.294.597.243.29-.035.363-.063.34-.125-.012-.047-.035-1.055-.047-2.242a198.267 198.267 0 0 0-.055-3.426l-.039-1.27-.226-.007a1.081 1.081 0 0 0-.344.03zm-1.226 3.012c.226.05.695.402.695.52a.84.84 0 0 0 .078.226c.238.515.266 1.117.086 1.496-.063.129-.266.379-.453.55-.278.25-.383.313-.61.34-.336.043-.578 0-.921-.175-.329-.164-.668-.606-.668-.875 0-.055-.024-.114-.051-.13-.028-.023-.067-.163-.09-.316-.027-.215-.016-.316.05-.425a.58.58 0 0 0 .09-.274c0-.289.465-.781.883-.937.278-.11.442-.11.91 0zM114.34 23.95c-.02.015-.14.054-.278.081-.863.2-1.835 1.051-2.21 1.95-.59 1.43-.196 3.156.945 4.097.516.43 1.3.742 1.734.703a.29.29 0 0 1 .215.063c.055.074.102.074.328.004.18-.055.281-.063.332-.016.04.035.086.035.102.008.02-.031.152-.086.3-.121.575-.149 1.317-.645 1.317-.89 0-.106-.488-.704-.57-.704-.028 0-.18.105-.34.227-.156.125-.317.226-.356.226-.039 0-.16.047-.265.098-.293.148-1.29.133-1.64-.024-.786-.355-1.294-1.238-1.294-2.254 0-.918.317-1.558 1.012-2.035.351-.242.433-.277.832-.324.234-.02.457-.031.492-.008a.987.987 0 0 0 .309.02c.148-.004.293.023.343.074.051.04.165.09.25.113.09.024.27.145.407.266l.25.234.28-.3c.161-.168.282-.356.29-.415 0-.156-.383-.5-.773-.683-.657-.32-1.036-.426-1.52-.426-.25 0-.469.016-.492.035zM141.477 24c-.051.063-.07.875-.079 3.383l-.007 3.297.492.004c.363 0 .504-.02.527-.07.016-.048.028-.458.028-.91 0-.458.015-1.083.039-1.384l.035-.547 3.117.024.012.367c.004.203.023.848.035 1.445.015 1.063.02 1.075.14 1.07.067 0 .309-.007.536-.011l.406-.012-.012-1.172c-.012-.652-.016-1.203-.016-1.226 0-.028-.027-.028-.066-.004-.039.023-.047.016-.023-.027.023-.036.043-1.008.043-2.165v-2.105l-.457-.004c-.254-.004-.457-.012-.461-.012-.008 0-.063 1.11-.098 1.926l-.04.906-1.565.02-1.56.012-.034-.352a36.88 36.88 0 0 1-.059-1.238 21.21 21.21 0 0 0-.062-1.082l-.032-.207-.386-.008c-.274-.004-.403.02-.453.082zM45.996 24.133c-.074.047-.074.351-.023 2.258.058 1.96.082 2.238.183 2.57.168.539.36.855.723 1.187.383.348.738.536 1.137.594.156.024.293.063.293.098 0 .027.066.039.156.02.086-.02.305-.044.492-.055.852-.059 1.66-.59 2.008-1.32.16-.34.183-.465.23-1.153.028-.418.063-1.488.078-2.371.016-.887.04-1.656.059-1.719.031-.097-.008-.101-.473-.101h-.5l-.039.777c-.02.43-.035 1.215-.035 1.754.004 1.238-.039 1.781-.18 2.172-.109.3-.453.734-.582.734-.039 0-.152.047-.261.098-.278.14-.973.125-1.266-.028a1.59 1.59 0 0 1-.707-.765c-.18-.414-.234-1.145-.215-3.047l.02-1.754h-.508c-.277 0-.55.023-.59.05zM81.48 25.559c-.043.02-.062.957-.062 2.578-.008 2.535-.008 2.547.105 2.543.067 0 .305-.008.532-.012l.406-.012-.012-1.285c-.011-1.144.008-1.348.11-1.762.101-.41.152-.504.34-.68.269-.257.374-.3.687-.284.137 0 .27-.012.305-.036.046-.02.07-.207.07-.484 0-.383-.02-.46-.106-.508-.152-.082-.632.082-1.027.344-.187.117-.355.219-.39.219-.028 0-.09-.117-.13-.266l-.074-.266-.347-.062c-.2-.035-.38-.05-.407-.027zM105.418 25.629c-.695.215-1.293.75-1.61 1.433-.148.313-.16.387-.16 1.075 0 .812.04.98.407 1.547.246.382.386.515.867.804.66.395 1.71.418 2.348.051.449-.262.59-.398.59-.566 0-.176-.305-.563-.446-.563-.047 0-.2.074-.348.168-.296.195-.828.274-1.379.207-.292-.039-.347-.07-.62-.348a2.34 2.34 0 0 1-.41-.578l-.114-.27.457.013c1.473.043 2.168.039 2.164-.012-.008-.035.176-.063.441-.074.7-.02.704-.024.704-.352 0-.309-.223-1.082-.407-1.41-.129-.234-.468-.563-.824-.805-.266-.176-.86-.402-.86-.324 0 .023-.027.047-.062.047-.027 0-.043-.024-.027-.055.062-.101-.371-.094-.711.012zm1.055.965c.3.113.367.168.582.488.254.379.3.594.144.656-.144.059-2.172.11-2.36.063-.12-.028-.144-.067-.144-.25 0-.215.215-.633.41-.793.149-.125.622-.29.832-.293.114 0 .356.055.536.129zM167.688 25.59c-.036.047-.122.062-.188.047-.16-.04-.527.093-.902.34-.301.191-.309.191-.34.074a1.247 1.247 0 0 1-.035-.274c0-.136-.028-.152-.258-.187a5.888 5.888 0 0 0-.512-.031h-.246l-.012 2.433a947.74 947.74 0 0 0-.011 2.563c-.004.125.011.129.504.129h.507v-.282c.016-1.597.051-2.562.086-2.605a1.9 1.9 0 0 0 .106-.352c.09-.363.383-.734.644-.789a.956.956 0 0 0 .293-.113c.121-.086.48-.11.48-.035 0 .023.087.074.188.113.238.086.543.379.637.606.05.132.086.664.113 1.843l.04 1.657.253-.036c.145-.02.367-.035.512-.035h.254l-.035-1.433c-.047-1.864-.114-2.407-.356-2.793-.222-.352-.605-.676-.87-.73a1.03 1.03 0 0 1-.255-.087c-.117-.086-.531-.101-.597-.023zM53.082 25.66l-.168.106.016 2.433.011 2.43.47.035c.253.016.468.027.48.02.011-.012.015-.645.015-1.422-.004-1.922-.015-1.852.43-2.23.578-.497.894-.641 1.047-.497.039.043.129.074.203.082.168.012.602.38.703.602.07.133.106.566.145 1.812.027.899.062 1.637.07 1.649.012.011.262.004.55-.012l.52-.023-.023-.18c-.024-.149-.106-2.477-.102-2.914 0-.067-.023-.125-.05-.125-.028 0-.051-.074-.051-.168 0-.551-.657-1.453-1.141-1.578-.129-.032-.254-.051-.285-.032-.02.016-.043 0-.043-.03 0-.083-.316-.079-.785.023a1.789 1.789 0 0 0-.723.312c-.184.125-.363.227-.398.227-.051 0-.07-.09-.07-.25 0-.14-.024-.27-.06-.29-.144-.09-.597-.078-.761.02zM60.793 25.613c0 .035-.105.051-.266.04-.152-.016-.422 0-.609.027-.328.058-.898.289-.965.394-.062.106-.035.38.063.606.09.207.12.23.246.199.082-.02.21-.063.289-.106.394-.195.812-.238 1.445-.144.223.027.328.078.438.207.082.094.152.187.152.21 0 .024.05.114.113.2.153.203.094.383-.14.465-.106.031-.532.086-.95.113-.968.063-1.199.125-1.472.383-.715.691-.676 1.602.105 2.234.285.239.36.266.7.305.203.02.406.063.445.094.047.039.09.039.14 0 .04-.043.203-.094.364-.125.18-.043.39-.145.554-.274.285-.222.418-.21.48.051.02.102.09.153.255.192a1.8 1.8 0 0 1 .293.101c.043.031.125.012.191-.039.117-.078.117-.113.113-1.629-.015-2.086-.066-2.445-.457-2.926-.238-.3-.61-.476-1.078-.511-.215-.008-.375-.051-.36-.07.02-.032 0-.051-.027-.051-.035 0-.062.027-.062.054zm.113 2.942c.02.004-.011.035-.054.066-.063.047-.047.05.082.031.464-.093.566-.105.48-.043-.066.051-.062.063.04.063.07 0 .144-.027.163-.063.074-.117.149.051.149.332 0 .317-.114.579-.317.735-.207.172-.699.265-1.086.215-.285-.032-.36-.067-.543-.258-.152-.16-.21-.281-.21-.399 0-.355.343-.632.722-.578.14.024.18.012.18-.062 0-.086.074-.09.394-.04zM68.969 25.64c-.215.047-.418.11-.457.137-.075.063-.696.403-.73.403-.009 0-.067-.102-.122-.227-.101-.23-.16-.254-.617-.293-.14-.02-.168.012-.211.145-.027.093-.05 1.265-.05 2.61l-.005 2.44.215-.015c.117-.012.352-.047.516-.074l.305-.063-.008-.687c0-.38.023-1.11.047-1.625.039-.75.066-.989.164-1.184.156-.348.48-.523 1.015-.562l.414-.028.254.25c.137.133.246.281.246.332 0 .047.043.2.094.34.066.2.102.598.129 1.73l.035 1.473.422.067c.516.082.645.058.598-.118-.051-.203-.032-2.464.023-2.918.063-.527.274-.894.594-1.05.125-.063.27-.13.328-.157.156-.082.504-.113.46-.046-.015.027.013.058.071.058.196 0 .574.457.66.797.09.34.141 2.875.063 3.07-.078.2.066.27.578.27h.477l-.02-1.86c-.023-1.597-.039-1.875-.121-2.023a.794.794 0 0 1-.094-.289c0-.148-.234-.465-.488-.656-.207-.16-.406-.2-1.203-.239-.508-.023-.727.032-1.082.282-.156.11-.301.195-.328.195a.643.643 0 0 0-.196.113c-.129.102-.152.106-.23.02a.75.75 0 0 1-.14-.18c-.087-.148-.973-.539-1.177-.515-.023 0-.218.039-.43.078zM129.836 28.117v2.567l.492-.016c.277-.012.516-.04.54-.063.019-.023.019-.125-.013-.226a1.351 1.351 0 0 1-.03-.426c.019-.125.042-.59.058-1.023.039-1.32.18-1.825.562-2.047a1.15 1.15 0 0 0 .207-.149c.016-.027.18-.074.368-.101.445-.074.539-.188.52-.645-.02-.316-.032-.347-.161-.37-.207-.028-.746.109-.899.226-.074.062-.164.11-.203.11-.039 0-.101.038-.14.085-.102.117-.227.106-.227-.027 0-.239-.125-.399-.305-.399-.097 0-.312-.015-.468-.035l-.301-.031zM162.664 25.566c0 .012 0 1.164-.008 2.57v2.548l.516.02.516.015-.012-2.465c-.008-1.356-.028-2.488-.047-2.516-.016-.035-.191-.066-.39-.078-.192-.02-.368-.047-.387-.062-.036-.04-.188-.059-.188-.032zM173.344 25.617c0 .043-.07.055-.188.031-.261-.05-.812.067-1.086.22-.351.21-.738.648-.902 1.01-.55 1.25-.098 2.794.965 3.321.152.07.328.164.39.192.063.035.36.066.665.078.453.011.55 0 .55-.067 0-.058.055-.086.157-.086.097 0 .316-.097.52-.23.194-.125.366-.211.39-.195.02.023.027.175.027.347-.008.403-.285.98-.57 1.196-.383.293-1.586.27-2.207-.04-.2-.097-.38-.171-.407-.16-.097.04-.453.516-.453.614 0 .117.328.453.434.453.039 0 .176.054.3.117.216.113.317.125 1.352.121 1.207-.008 1.336-.031 1.735-.328.308-.238.625-.75.738-1.191.086-.336.101-.73.113-2.868l.024-2.472-.301-.02c-.485-.035-.621.012-.684.238-.043.18-.125.278-.219.282-.019 0-.14-.102-.265-.22-.2-.194-.285-.23-.559-.26-.175-.02-.367-.06-.418-.09-.07-.036-.101-.036-.101.007zm.476.988c.43.149.72.407.934.856.215.437.129 1.043-.191 1.473-.317.418-.645.586-1.153.59-.293 0-.441-.024-.496-.087a.355.355 0 0 0-.187-.085c-.118 0-.48-.34-.594-.555a1.63 1.63 0 0 1 .05-1.512c.169-.293.329-.441.708-.644.37-.211.422-.211.93-.036zM77.04 25.703c-.669.113-1.161.363-1.161.59 0 .059.062.215.148.355l.141.262.266-.086c.148-.05.418-.12.605-.168.184-.05.387-.101.45-.12.226-.06.53-.06.519 0-.004.034.058.07.148.07.176.003.434.273.606.62.23.485.144.536-.922.575-1.028.039-1.25.09-1.555.387a1.796 1.796 0 0 0-.574.996c-.063.28-.059.34.055.593.261.606.652.914 1.238.977.191.016.344.055.344.09 0 .027.035.027.078-.012.043-.035.226-.09.41-.125.184-.035.36-.078.387-.105a.908.908 0 0 1 .199-.086.67.67 0 0 0 .215-.121c.097-.094.18-.051.18.097 0 .153.175.2.68.176l.421-.016-.016-1.257c-.023-1.829-.074-2.32-.265-2.735-.192-.406-.645-.855-.926-.933-.316-.079-1.238-.098-1.672-.024zm1.745 2.95c.106.038.121.359.028.546-.25.492-.813.762-1.43.692-.442-.055-.656-.243-.656-.594 0-.363.125-.55.406-.613.273-.063 1.515-.082 1.652-.032zM86.379 25.703c-.363.07-.84.375-1.11.703a3.766 3.766 0 0 0-.394.668c-.21.434-.21.442-.203 1.145.004.687.012.722.203 1.133.254.55.637.953 1.137 1.187.347.164.41.176 1.039.176.613 0 .695-.012 1.004-.164.402-.188.875-.664.875-.88 0-.097-.067-.194-.207-.3-.121-.086-.223-.176-.23-.203-.048-.098-.263-.023-.481.168-.742.664-1.36.617-1.996-.14l-.305-.36v-.578c0-.485.023-.621.137-.86.285-.617.804-.933 1.37-.851.325.047.419.098.735.348.137.113.3.19.39.19.157 0 .637-.315.645-.425.004-.219-.773-.906-1.09-.96-.347-.063-1.21-.06-1.52.003zM91.04 25.703c-.356.059-.696.2-.895.363-.118.102-.102.391.035.618.129.222.168.214.843-.024.547-.195.895-.219 1.172-.078.38.188.746.59.746.82 0 .207-.168.29-.707.352-1.671.207-1.597.187-1.828.363-.332.246-.57.637-.578.945-.016.653.11.973.516 1.305.32.274.422.324.734.375.14.024.277.074.3.106.032.047.056.047.079-.008.012-.035.113-.07.215-.07.238 0 .738-.188 1.016-.368.113-.078.222-.14.25-.14.023 0 .078.082.128.183.079.168.137.2.395.262.55.121.52.223.48-1.633-.039-1.691-.093-2.332-.23-2.594-.188-.363-.656-.707-1.063-.78-.328-.063-1.214-.06-1.609.003zm1.91 3.063c.062.18.03.297-.184.644-.192.317-.457.457-.926.492-.45.04-.8-.117-.977-.43-.156-.285-.156-.355.024-.566.195-.238.379-.277 1.254-.285l.746-.004zM125.672 25.676c-.383.066-.973.554-1.27 1.043-.3.488-.402.867-.402 1.472 0 .493.016.618.16.965.207.516.371.758.695 1.032a2.53 2.53 0 0 0 2.184.542c.215-.046.418-.101.453-.125a.6.6 0 0 1 .2-.09c.246-.078.62-.367.62-.492 0-.082-.148-.324-.328-.55l-.113-.137-.328.215c-.316.21-.363.226-.848.246-.316.015-.597 0-.722-.047-.301-.098-.938-.727-.938-.918 0-.148.012-.148.485-.187.265-.024.824-.036 1.238-.016.61.023.746.012.722-.05-.023-.052.036-.075.211-.075.215 0 .23.012.164.09-.07.086-.058.09.118.05.105-.023.207-.062.226-.09.016-.023.13-.05.254-.062l.227-.015-.012-.426c-.023-1.09-.832-2.235-1.66-2.348-.414-.062-1.082-.074-1.336-.027zm1.023.84c.016.027.102.066.18.082.21.058.45.246.672.539.234.3.262.539.074.601-.207.063-1.734.098-2.164.047-.394-.047-.394-.047-.41-.226-.02-.16.027-.239.281-.508.168-.18.426-.38.582-.453.281-.133.73-.18.785-.082zM137.379 25.66c-.32.027-.418.067-.45.195-.023.07-.175.473-.34.891-.163.418-.448 1.133-.62 1.586-.176.453-.348.844-.367.875-.125.125-.329-.223-.692-1.156-.547-1.422-.687-1.762-.824-2.04l-.152-.312-.34.012c-.582.012-.555.004-.52.14.016.075.086.274.153.442.066.172.152.414.199.539.144.438.258.734.308.852.032.058.141.355.254.648.114.297.29.754.399 1.02.511 1.289.586 1.718.355 2.011-.238.301-.816.41-1.203.223-.285-.129-.375-.09-.488.23-.145.422-.133.586.035.653.27.101 1.2.136 1.543.05.383-.09.746-.417.926-.831.062-.149.16-.368.215-.493.128-.289.265-.613.394-.933.059-.145.25-.614.426-1.051.398-.984.867-2.164.93-2.352.023-.078.125-.332.226-.566.102-.23.191-.48.211-.55.027-.13-.012-.134-.578-.083zM149.695 25.691c-.332.094-.535.215-.855.54a2.95 2.95 0 0 0-.871 2.046c.004.352.031.504.195.895.324.777 1.008 1.441 1.606 1.547.148.027.277.078.28.11.012.03.055.038.087.015a1.23 1.23 0 0 1 .328-.024c.722.035 1.547-.445 2.008-1.168.105-.164.191-.328.191-.363 0-.027.031-.113.078-.18.04-.066.106-.3.149-.507.14-.778-.125-1.665-.696-2.286-.386-.425-.73-.593-1.277-.625-.238-.015-.555-.03-.711-.043a1.94 1.94 0 0 0-.512.043zm1.235.942c.156 0 .601.449.765.777.098.192.121.344.121.797 0 .527-.011.574-.183.863-.336.563-.785.79-1.395.703-.343-.046-.707-.308-.992-.726-.215-.317-.223-.328-.223-.844 0-.465.02-.555.16-.816.227-.407.512-.664.903-.797.3-.098.355-.106.52-.035.101.043.25.078.324.078zm0 0"/><path style="stroke:none;fill-rule:nonzero;fill:#fff;fill-opacity:1" d="M107.492 28.617c-.047.074.028.074.14 0 .075-.047.075-.058-.01-.058-.052 0-.114.023-.13.058zm0 0"/></svg>